<?xml version="1.0" encoding="utf-8"?>
<!-- Generator: Adobe Illustrator 26.1.0, SVG Export Plug-In . SVG Version: 6.00 Build 0)  -->
<svg version="1.1" id="Layer_1" xmlns="http://www.w3.org/2000/svg" xmlns:xlink="http://www.w3.org/1999/xlink" x="0px" y="0px"
	 viewBox="0 0 1000 1000" style="enable-background:new 0 0 1000 1000;" xml:space="preserve">
<style type="text/css">
	.st0{fill:#0D0808;}
	.st1{fill:#C42524;}
</style>
<path class="st0" d="M468.9,293.5c18.6-67.3,53.9-123.3,99.3-173.8c86.4-96.2,227.6-91.5,304.7,13.2c67.8,92,88.5,194,52.4,304.2
	c-49,149.8-117.5,291-191.4,429.7c-18,33.7-40.3,63.9-76.9,83.2c-20.6,10.9-36.2,7.7-52.6-0.7c-48-24.7-94.9-51.4-142.5-76.8
	c-96.5-51.6-184.8-115.4-267.5-186.2C125.2,626.9,75.1,551.1,60.7,460.4C37.8,315.2,124.1,222.8,260,204.1
	c48.8-6.7,93.1,14.7,134.4,38.8C419.7,257.6,443,275.7,468.9,293.5z M282.8,705.4c-0.7-0.9-1.4-1.8-2.1-2.7c0.1,0.5,0,1.3,0.3,1.5
	c0.6,0.4,1.4,0.6,2.2,0.8c8.6,18.4,33.3,11.7,42.9,26.2c12.2,18.6,29.7,24.3,48.6,33.8c31.8,15.9,64.8,32.7,91.8,58.7
	c21.8,21.1,47.9,39.4,80.3,41.8c21.5,1.6,35.9,12.4,48,28.8c18.4,25,63.6,19.9,77.7-8.5c8.4-16.8,14-36.2,26.1-49.7
	c38.9-43.2,45.3-102.7,81.1-149.2c26-33.9,52.2-76.4,49.4-127.6c-0.7-13,11.6-30.9,14.9-47.6c0.8-3.8,3.8-10.7,6.2-6.7
	c7.5,12.5,9.1,3.3,11-2.2c10.6-30.9,20.8-61.9,31-92.9c2.5-7.5,0.3-13.7-2.2-21.7c-4.4-14.1-3.1-43.3,1.3-44.4
	c19.9-5,7.4-15.9,6.1-22.2c-5.2-26.3-17.1-52.3-16.8-78.3c0.3-23.2-6-38.5-21.9-52.8c-5.3-4.8-11.5-11.1-12.7-17.5
	c-7.1-37.6-39.4-46.3-67.2-58.7c-26-11.6-56.2-4.3-83-14.2c16.7,0,33.5,0,50.2,0c-16.8-4.2-33.8-11-50,0.3
	c-23.9-6.1-41.4,8-57.1,21.4c-32.4,27.8-65.6,54.7-87.2,93.6c-20.1,36.3-26.3,76.4-39.1,114.7c-5,14.9-7.2,28.3-5.1,44.5
	c2.3,18.1,6.6,35.9,10.8,58.4c-33.9-23.4-38.1-67.2-74.2-81.7c-2.6-27.8-27.4-35.2-44.3-50.7c-30.2-27.9-60.5-46.9-104.4-51.2
	c-57.4-5.7-99.8,21.5-145.5,45.8c-42.7,22.6-42.6,69.1-54.8,105.8c-12.2,36.5-2.9,77.8,21.1,112c1.4,1.5-1.8,5.9,3.1,5.2
	c-1.1-1.7-2.3-3.3-3.4-5c-1.2-29.4-20.6-56-14-86.8c1.8,36.3,26,65.9,29.6,101.7c0.8,8.2,5.9,17.7,12,23.4
	c27.2,25.1,44.3,58.1,68,85.8c8.1,9.5,12.6,19.9,25.4,27.2c16.2,9.3,37,12.2,48.7,29.8C289.8,701,291.7,703.7,282.8,705.4z
	 M288,237.6c-23.2-4.6-45.4-3.3-65,12.1C244.7,245.7,266.4,241.7,288,237.6z M772.7,102.5c-2.9-0.5-5.1-1.2-7.3-1.1
	c-1,0-1.9,1.6-2.9,2.4c2.2,0.6,4.3,1.5,6.5,1.6C770,105.4,771,103.8,772.7,102.5z M203.4,254.5c-3.1-0.3-5.3-0.9-7.5-0.6
	c-2.5,0.4-2.7,2-0.7,3c1.3,0.7,3.1,1,4.6,0.7C200.9,257.5,201.7,256.2,203.4,254.5z M213.5,250.8c-0.5-0.5-0.9-1.4-1.5-1.5
	c-0.5-0.1-1.2,0.7-1.7,1.2c0.5,0.5,1,1.4,1.6,1.4C212.4,251.9,213,251.1,213.5,250.8z"/>
<path class="st1" d="M282.8,705.4c8.8-1.6,7-4.3,2.8-10.7c-11.7-17.6-32.5-20.5-48.7-29.8c-12.8-7.3-17.2-17.7-25.4-27.2
	c-23.8-27.8-40.8-60.8-68-85.8c-6.1-5.6-11.2-15.2-12-23.4c-3.6-35.8-27.8-65.4-29.6-101.7c-6.7,30.8,12.8,57.4,14,86.8l0.3-0.3
	c-24-34.2-33.3-75.5-21.1-112c12.2-36.6,12.2-83.1,54.8-105.8c45.7-24.2,88-51.4,145.5-45.8c43.9,4.3,74.2,23.4,104.4,51.2
	c16.9,15.6,41.7,23,44.3,50.7c36.1,14.5,40.3,58.3,74.2,81.7c-4.2-22.5-8.5-40.3-10.8-58.4c-2-16.3,0.2-29.7,5.1-44.5
	c12.8-38.3,18.9-78.4,39.1-114.7c21.6-38.9,54.8-65.8,87.2-93.6c15.6-13.4,33.1-27.5,57.1-21.4l-0.3-0.4c26.9,9.9,57.1,2.6,83,14.2
	c27.8,12.4,60.1,21.1,67.2,58.7c1.2,6.5,7.4,12.8,12.7,17.5c15.9,14.3,22.2,29.6,21.9,52.8c-0.3,26,11.6,52,16.8,78.3
	c1.2,6.3,13.8,17.2-6.1,22.2c-4.4,1.1-5.7,30.3-1.3,44.4c2.5,8,4.6,14.1,2.2,21.7c-10.2,31-20.4,62-31,92.9
	c-1.9,5.5-3.4,14.7-11,2.2c-2.4-4-5.4,2.9-6.2,6.7c-3.3,16.7-15.6,34.5-14.9,47.6c2.8,51.2-23.4,93.7-49.4,127.6
	c-35.7,46.5-42.1,106-81.1,149.2c-12.1,13.5-17.8,32.9-26.1,49.7c-14.1,28.4-59.3,33.5-77.7,8.5c-12.1-16.5-26.5-27.2-48-28.8
	c-32.3-2.4-58.5-20.8-80.3-41.8c-27-26.1-60-42.8-91.8-58.7c-18.9-9.4-36.3-15.1-48.6-33.8c-9.6-14.6-34.3-7.9-42.9-26.2
	L282.8,705.4z M573.3,248.4c-10.7,6.6-23.8,11.8-17.2,28.9c15.1-4.6,12.8-18.7,16.9-29.2c1.6-3.4,3.1-6.8,4.7-10.2
	c7.9,2.9,5.6,9.3,5.2,15c-4.3,4.2-6.4,8.6-1.1,15.3c0.3-6.1,0.6-10.8,0.8-15.5c24-19.2,32.9-47.9,45.8-73.9c0.9-1.8-2.3-5.5-3.6-8.3
	c-2.5,1.4-5.8,2.2-7.4,4.3c-15.3,19.7-32.5,38.4-39.4,63.4C576.4,241.6,574.8,245,573.3,248.4z M843.5,405.6
	c-12.2,14.1-18.1,30.4-16.2,49.3c7.7-15.7,15-31.6,16-49.5c1-1.1,2.1-2.2,2.9-3.4c0.2-0.3-0.4-1.2-0.6-1.8
	C844.9,402,844.2,403.8,843.5,405.6z M155.2,326.8c-11.5,17.4-9,37.5-11.7,56.7c3.7-19,16-36.3,11.5-56.9c10-4.2,23.1,9.6,30.9-7.3
	C177.6,332.7,163,310.8,155.2,326.8z M182.1,305.3c13.4-10.5,28.6-10.4,44-9.6c16.6,0.9,16.4,0.6,19.4-12.1c0.4-1.6,4.5-2.4,9.6-4.8
	C216,278.5,193.6,286.1,182.1,305.3z M729.8,147c-9.5-12.4-19.9-11.8-30-3.2C709.8,144.9,719.8,146,729.8,147z M688.9,146.3l-1,1.3
	l1.6,0.2L688.9,146.3z"/>
<path class="st1" d="M288,237.6c-21.7,4-43.3,8.1-65,12.1C242.6,234.3,264.8,233,288,237.6z"/>
<path class="st1" d="M695.9,100.7c16.2-11.3,33.1-4.6,50-0.3c-16.7,0-33.5,0-50.2,0C695.6,100.3,695.9,100.7,695.9,100.7z"/>
<path class="st1" d="M772.7,102.5c-1.7,1.4-2.7,2.9-3.6,2.9c-2.2-0.1-4.4-1-6.5-1.6c1-0.8,1.9-2.4,2.9-2.4
	C767.6,101.3,769.8,102,772.7,102.5z"/>
<path class="st1" d="M203.4,254.5c-1.7,1.6-2.5,3-3.6,3.2c-1.5,0.2-3.2-0.1-4.6-0.7c-2.1-1-1.8-2.6,0.7-3
	C198.1,253.7,200.4,254.3,203.4,254.5z"/>
<path class="st1" d="M115.8,513.5c1.1,1.7,2.3,3.3,3.4,5c-5,0.6-1.7-3.7-3.1-5.2C116.1,513.2,115.8,513.5,115.8,513.5z"/>
<path class="st1" d="M283.2,705c-0.7-0.3-1.6-0.4-2.2-0.8c-0.3-0.2-0.2-1-0.3-1.5c0.7,0.9,1.4,1.8,2.1,2.7
	C282.8,705.4,283.2,705,283.2,705z"/>
<path class="st1" d="M213.5,250.8c-0.5,0.4-1.1,1.1-1.7,1.1c-0.5,0-1-0.9-1.6-1.4c0.6-0.4,1.2-1.2,1.7-1.2
	C212.5,249.4,213,250.3,213.5,250.8z"/>
<path class="st0" d="M582.9,252.9c0.4-5.7,2.7-12.1-5.2-15c0,0,0.3,0.3,0.3,0.3c7-25,24.1-43.7,39.4-63.4c1.6-2.1,4.9-2.9,7.4-4.3
	c1.3,2.8,4.4,6.6,3.6,8.3c-12.9,26.1-21.8,54.7-45.8,73.9L582.9,252.9z"/>
<path class="st0" d="M182.1,305.3c11.5-19.2,33.9-26.8,73-26.5c-5.1,2.4-9.2,3.2-9.6,4.8c-3,12.7-2.8,13-19.4,12.1
	C210.7,294.9,195.6,294.8,182.1,305.3z"/>
<path class="st0" d="M155,326.5c4.5,20.6-7.7,37.9-11.5,56.9c2.8-19.1,0.2-39.3,11.7-56.7L155,326.5z"/>
<path class="st0" d="M843.2,405.4c-0.9,18-8.3,33.8-16,49.5c-1.8-18.9,4.1-35.1,16.2-49.3L843.2,405.4z"/>
<path class="st0" d="M573,248.1c-4.1,10.5-1.8,24.6-16.9,29.2c-6.6-17.1,6.5-22.3,17.2-28.9L573,248.1z"/>
<path class="st0" d="M729.8,147c-10-1.1-20-2.2-30-3.2C709.9,135.2,720.3,134.6,729.8,147z"/>
<path class="st0" d="M155.2,326.8c7.8-16,22.4,6,30.6-7.6c-7.8,17-20.9,3.1-30.9,7.3C155,326.5,155.2,326.8,155.2,326.8z"/>
<path class="st0" d="M582.6,252.7c-0.3,4.7-0.5,9.5-0.8,15.5c-5.2-6.7-3.2-11.1,1.1-15.3C582.9,252.9,582.6,252.7,582.6,252.7z"/>
<path class="st0" d="M573.3,248.4c1.6-3.4,3.1-6.8,4.7-10.2c0,0-0.3-0.3-0.3-0.3c-1.6,3.4-3.1,6.8-4.7,10.2
	C573,248.1,573.3,248.4,573.3,248.4z"/>
<path class="st0" d="M843.5,405.6c0.7-1.8,1.3-3.6,2-5.4c0.2,0.6,0.8,1.4,0.6,1.8c-0.8,1.2-1.9,2.3-2.9,3.4
	C843.2,405.4,843.5,405.6,843.5,405.6z"/>
<polygon class="st0" points="688.9,146.3 689.5,147.8 687.9,147.6 "/>
</svg>
